<svg width="400" height="400" viewBox="0 0 400 400" fill="none" xmlns="http://www.w3.org/2000/svg">
<path d="M41 22.6869C74.3761 22.5606 107.752 22.4343 142.14 22.3042C152.621 22.2485 163.103 22.1927 173.903 22.1353C186.847 22.1076 186.847 22.1076 192.935 22.1025C197.126 22.0932 201.316 22.0742 205.506 22.0405C244.124 21.7436 285.683 22.3512 315.795 50.2407C316.838 51.1484 317.881 52.0561 318.956 52.9913C334.787 67.5977 343.908 87.6086 345.379 109.074C346.259 131.273 341.156 150.962 326.821 168.337C317.818 177.974 306.241 187.636 292.895 189.54C292.895 190.551 292.895 191.561 292.895 192.602C294.848 192.949 296.8 193.297 298.811 193.654C317.865 198.019 333.173 210.093 344.33 226.034C358.194 248.981 360.837 276.073 355.29 302.161C349.548 325.279 338.664 343.803 318.467 356.872C289.255 373.682 256.859 378.097 223.671 377.998C221.657 377.999 219.642 377.999 217.567 377.999C212.162 377.999 206.757 377.99 201.353 377.98C196.264 377.971 191.176 377.971 186.088 377.969C171.248 377.961 156.407 377.94 141.567 377.92C108.38 377.889 75.1929 377.857 41 377.825C41 260.629 41 143.434 41 22.6869ZM109.699 79.3252C109.699 80.3355 109.699 81.3458 109.699 82.3868C111.232 82.9255 112.765 83.4642 114.344 84.0192C133.337 90.834 153.034 98.5901 167.711 113.002C167.711 114.012 167.711 115.023 167.711 116.064C166.42 115.732 165.129 115.401 163.799 115.059C146.193 110.726 133.574 109.859 117.237 118.551C104.688 128.724 96.7949 139.945 92.9057 155.864C93.3322 159.377 93.3322 159.377 94.4323 161.987C95.7272 161.209 97.0221 160.432 98.3563 159.631C122.457 145.36 146.521 137.133 173.818 131.371C172.765 132.67 171.712 133.968 170.627 135.306C160.621 147.774 151.441 160.471 143.285 174.233C142.764 175.109 142.243 175.986 141.706 176.889C126.963 202.112 117.545 229.974 111.225 258.425C110.849 260.11 110.474 261.795 110.086 263.531C107.21 279.004 107.884 294.798 108.172 310.471C105.141 311.128 102.109 311.785 99.0779 312.442C93.454 314.408 91.4565 317.714 88.3258 322.717C88.0705 326.748 88.0705 326.748 88.3258 330.371C89.8411 329.982 91.3564 329.593 92.9176 329.193C98.4331 327.786 103.956 326.411 109.483 325.053C112.326 324.353 115.166 323.641 118.006 322.926C128.761 320.396 139.462 318.913 150.441 317.838C152.399 317.645 152.399 317.645 154.396 317.448C170.371 316.026 185.768 316.587 201.679 318.507C203.393 318.707 205.108 318.907 206.875 319.113C218.43 320.516 229.836 322.394 241.276 324.535C260.783 328.12 278.377 329.406 297.475 322.717C296.971 321.707 296.468 320.696 295.949 319.656C293.055 318.943 293.055 318.943 289.747 318.699C286.771 318.415 286.771 318.415 283.736 318.125C283.76 316.187 283.783 314.249 283.808 312.252C283.891 305.032 283.944 297.812 283.987 290.591C284.01 287.471 284.041 284.352 284.081 281.233C284.137 276.737 284.163 272.243 284.183 267.747C284.206 266.362 284.23 264.978 284.254 263.552C284.257 253.503 282.949 245.92 276.12 238.118C274.949 237.116 273.778 236.113 272.572 235.081C271.222 233.92 269.872 232.76 268.481 231.565C261.677 226 254.791 220.548 247.854 215.151C240.359 209.31 233.04 203.258 225.723 197.194C217.204 203.482 208.954 210.028 200.82 216.807C187.715 227.71 187.715 227.71 182.25 232.049C180.758 233.239 179.266 234.429 177.73 235.655C176.441 236.669 175.152 237.683 173.824 238.728C168.841 243.383 167.791 246.414 167.364 253.323C167.365 255.558 167.382 257.793 167.413 260.027C167.419 261.798 167.419 261.798 167.426 263.605C167.443 267.364 167.481 271.122 167.52 274.881C167.535 277.434 167.549 279.987 167.562 282.54C167.596 288.789 167.648 295.038 167.711 301.286C166.111 301.379 164.511 301.472 162.863 301.567C160.758 301.697 158.653 301.826 156.547 301.956C155.494 302.016 154.44 302.076 153.354 302.138C148.671 302.433 144.705 302.853 140.231 304.348C139.057 253.951 145.884 207.042 169.238 161.987C169.853 160.797 170.468 159.607 171.102 158.381C175.403 150.334 180.376 143.114 186.031 135.964C212.936 146.413 237.502 160.35 258.767 180.081C260.571 182.054 260.571 182.054 262.363 181.887C263.211 164.871 260.064 149.045 248.623 135.964C237.314 125.055 225.82 121.823 210.361 121.9C206.831 121.973 203.3 122.061 199.77 122.187C211.568 108.845 233.725 105.544 250.543 104.495C256.008 104.209 261.472 103.994 266.942 103.817C263.25 97.8206 260.099 93.4626 254.157 89.6579C253.043 88.9239 251.929 88.1898 250.782 87.4335C239.442 81.3253 226.655 80.2003 214.178 83.3854C200.604 88.891 191.362 98.743 184.504 111.471C184.223 110.212 183.941 108.953 183.651 107.656C179.834 92.9262 173.863 83.0068 161.515 73.9616C144.338 64.6175 125.293 69.5413 109.699 79.3252Z" fill="#E78C3D"/>
</svg>
